<svg width="379" height="187" viewBox="0 0 379 187" fill="none" xmlns="http://www.w3.org/2000/svg">
<g filter="url(#filter0_dd_38_30)">
<mask id="path-1-outside-1_38_30" maskUnits="userSpaceOnUse" x="4.80502" y="-1.42952" width="368.841" height="176.561" fill="black">
<rect fill="white" x="4.80502" y="-1.42952" width="368.841" height="176.561"/>
<path d="M63.1872 120.5C62.4813 116.689 61.3233 113.983 59.7131 112.384C58.1604 110.7 55.9372 110.127 53.0436 110.663C49.7972 111.264 46.8421 112.651 44.1786 114.823C41.5151 116.995 39.2672 119.638 37.4349 122.751L44.9638 163.403L31.2016 165.951L20.2218 106.668L32.502 104.394L35.3369 111.424C37.415 108.849 39.9844 106.366 43.0452 103.974C46.093 101.511 49.7695 99.8816 54.0746 99.0842C59.6501 98.0516 64.5133 99.0853 68.6642 102.185C72.8152 105.285 75.5377 110.329 76.8318 117.316L84.0274 156.168L70.2652 158.717L63.1872 120.5ZM64.8616 92.3781C63.2383 92.6788 61.6687 92.6775 60.1526 92.3743C58.5529 92.0136 57.1256 91.402 55.8709 90.5394C54.6162 89.6769 53.5406 88.5986 52.644 87.3048C51.7474 86.0109 51.1422 84.517 50.8285 82.8232C50.5148 81.1294 50.5448 79.5179 50.9186 77.9888C51.2924 76.4596 51.9105 75.0677 52.7731 73.813C53.6357 72.5583 54.7557 71.5114 56.1332 70.6723C57.4271 69.7757 58.8856 69.1771 60.5089 68.8764C62.2027 68.5627 63.8495 68.5862 65.4492 68.9469C66.9653 69.2501 68.3507 69.833 69.6054 70.6955C70.8601 71.5581 71.9357 72.6363 72.8323 73.9302C73.7289 75.2241 74.3341 76.7179 74.6478 78.4117C74.9615 80.1055 74.9315 81.717 74.5577 83.2462C74.184 84.7753 73.5658 86.1673 72.7032 87.422C71.8407 88.6767 70.7624 89.7523 69.4686 90.6489C68.0911 91.488 66.5554 92.0644 64.8616 92.3781ZM63.4499 84.756C64.6497 84.5337 65.5658 83.9626 66.1984 83.0425C66.8179 82.0518 67.0165 80.9565 66.7943 79.7568C66.5721 78.557 66.0009 77.6408 65.0808 77.0083C64.1607 76.3757 63.1007 76.1705 61.901 76.3927C60.8423 76.5888 59.9967 77.1469 59.3642 78.067C58.6611 79.0002 58.4206 80.0667 58.6428 81.2665C58.865 82.4663 59.478 83.4112 60.4818 84.1012C61.4019 84.7338 62.3913 84.952 63.4499 84.756ZM121.912 149.151L114.853 111.04C113.442 103.418 109.56 100.195 103.208 101.372C100.032 101.96 96.9961 103.106 94.0999 104.811C91.2743 106.502 88.8054 108.346 86.6934 110.343L81.3765 101.145C83.9172 98.7034 86.9689 96.4593 90.5316 94.4125C94.1649 92.3527 98.0989 90.9306 102.333 90.1463C109.603 88.8 115.487 89.8271 119.985 93.2278C124.484 96.6284 127.387 101.857 128.694 108.915L135.674 146.602L121.912 149.151ZM153.489 143.303L140.96 75.6562C140.097 70.9982 140.148 66.9375 141.113 63.474C142.148 59.9975 144.103 57.1535 146.978 54.9421L126.547 58.7262L124.527 47.8222L159.356 41.3716L161.199 51.3228C157.958 53.529 155.833 56.441 154.824 60.0587C153.886 63.6633 153.828 67.6887 154.652 72.135L167.357 140.734L153.489 143.303ZM208.648 71.77L222.41 69.2211L229.449 107.226C230.835 114.707 230.081 120.686 227.187 125.164C224.28 129.571 219.651 132.363 213.299 133.539C211.253 133.919 209.295 133.989 207.426 133.751C205.57 133.584 203.794 133.256 202.097 132.767C200.459 132.195 198.948 131.526 197.565 130.76C196.169 129.923 194.991 129.083 194.032 128.239L193.903 135.818L181.623 138.092L170.643 78.8088L184.405 76.2599L191.797 116.17C192.681 117.394 193.727 118.514 194.938 119.531C196.135 120.477 197.454 121.291 198.894 121.973C200.321 122.585 201.786 123.007 203.289 123.24C204.863 123.459 206.391 123.432 207.873 123.157C214.507 121.928 217.072 117.256 215.569 109.14L208.648 71.77ZM277.338 56.8581C274.162 57.4463 271.184 58.5089 268.403 60.046C265.608 61.5125 263.206 63.1253 261.196 64.8845L255.954 54.906C258.163 53.037 260.927 51.2111 264.246 49.4283C267.637 47.6325 271.449 46.3424 275.683 45.5582C283.588 44.0942 289.772 44.7737 294.237 47.5966C298.689 50.349 301.431 54.5129 302.463 60.0884C302.934 62.6291 302.887 64.9372 302.322 67.0127C301.828 69.0751 301.097 71.0355 300.127 72.894C299.144 74.682 298.007 76.4255 296.716 78.1246C295.411 79.7531 294.261 81.426 293.266 83.1434C292.257 84.7902 291.444 86.5101 290.827 88.3033C290.281 90.0834 290.204 92.0321 290.596 94.1493C290.726 94.8551 290.892 95.5543 291.094 96.247C291.295 96.9397 291.573 97.6546 291.929 98.3917L280.284 100.548C279.826 100.049 279.343 99.4088 278.833 98.6273C278.323 97.8457 277.957 96.855 277.735 95.6552C277.33 93.4674 277.352 91.4194 277.802 89.5112C278.322 87.59 279.045 85.7772 279.97 84.0729C280.966 82.3555 282.045 80.6957 283.208 79.0933C284.358 77.4204 285.403 75.7671 286.341 74.1333C287.337 72.416 288.079 70.7091 288.568 69.0126C289.114 67.2325 289.204 65.3544 288.838 63.3783C288.642 62.3197 288.241 61.3355 287.635 60.4259C287.099 59.5032 286.371 58.7256 285.451 58.093C284.531 57.4605 283.39 57.0148 282.028 56.7561C280.666 56.4973 279.103 56.5313 277.338 56.8581ZM279.814 112.789C279.408 110.602 279.797 108.559 280.978 106.661C282.146 104.693 284.107 103.454 286.859 102.944C289.612 102.434 291.886 102.889 293.682 104.308C295.464 105.657 296.558 107.425 296.963 109.613C297.369 111.801 296.987 113.879 295.819 115.847C294.637 117.745 292.67 118.949 289.918 119.459C287.165 119.968 284.898 119.549 283.115 118.2C281.319 116.781 280.219 114.977 279.814 112.789ZM330.373 47.0356C327.198 47.6238 324.219 48.6864 321.438 50.2235C318.644 51.69 316.241 53.3028 314.231 55.062L308.989 45.0835C311.198 43.2145 313.962 41.3886 317.281 39.6058C320.672 37.81 324.484 36.5199 328.719 35.7357C336.623 34.2717 342.808 34.9512 347.272 37.7741C351.724 40.5265 354.466 44.6904 355.499 50.2659C355.969 52.8066 355.922 55.1147 355.358 57.1902C354.864 59.2525 354.132 61.213 353.162 63.0715C352.179 64.8595 351.042 66.603 349.751 68.3021C348.447 69.9306 347.296 71.6035 346.301 73.3209C345.292 74.9677 344.479 76.6876 343.862 78.4808C343.316 80.2609 343.239 82.2096 343.631 84.3268C343.761 85.0326 343.927 85.7318 344.129 86.4245C344.33 87.1172 344.608 87.8321 344.964 88.5692L333.319 90.7259C332.862 90.2267 332.378 89.5863 331.868 88.8047C331.358 88.0232 330.992 87.0325 330.77 85.8327C330.365 83.6449 330.387 81.5969 330.837 79.6887C331.357 77.7675 332.08 75.9547 333.005 74.2504C334.001 72.533 335.08 70.8732 336.243 69.2708C337.394 67.5979 338.438 65.9445 339.376 64.3108C340.372 62.5935 341.114 60.8865 341.603 59.1901C342.149 57.41 342.239 55.5319 341.874 53.5558C341.677 52.4972 341.276 51.513 340.67 50.6034C340.134 49.6807 339.406 48.9031 338.486 48.2705C337.566 47.638 336.425 47.1923 335.063 46.9336C333.701 46.6748 332.138 46.7088 330.373 47.0356ZM332.849 102.967C332.444 100.779 332.832 98.7363 334.013 96.8386C335.181 94.8703 337.142 93.6312 339.894 93.1215C342.647 92.6117 344.921 93.0665 346.717 94.4858C348.499 95.8345 349.593 97.6028 349.999 99.7907C350.404 101.979 350.022 104.057 348.854 106.025C347.672 107.923 345.705 109.126 342.953 109.636C340.201 110.146 337.933 109.726 336.15 108.378C334.354 106.958 333.254 105.155 332.849 102.967Z"/>
</mask>
<path d="M63.1872 120.5C62.4813 116.689 61.3233 113.983 59.7131 112.384C58.1604 110.7 55.9372 110.127 53.0436 110.663C49.7972 111.264 46.8421 112.651 44.1786 114.823C41.5151 116.995 39.2672 119.638 37.4349 122.751L44.9638 163.403L31.2016 165.951L20.2218 106.668L32.502 104.394L35.3369 111.424C37.415 108.849 39.9844 106.366 43.0452 103.974C46.093 101.511 49.7695 99.8816 54.0746 99.0842C59.6501 98.0516 64.5133 99.0853 68.6642 102.185C72.8152 105.285 75.5377 110.329 76.8318 117.316L84.0274 156.168L70.2652 158.717L63.1872 120.5ZM64.8616 92.3781C63.2383 92.6788 61.6687 92.6775 60.1526 92.3743C58.5529 92.0136 57.1256 91.402 55.8709 90.5394C54.6162 89.6769 53.5406 88.5986 52.644 87.3048C51.7474 86.0109 51.1422 84.517 50.8285 82.8232C50.5148 81.1294 50.5448 79.5179 50.9186 77.9888C51.2924 76.4596 51.9105 75.0677 52.7731 73.813C53.6357 72.5583 54.7557 71.5114 56.1332 70.6723C57.4271 69.7757 58.8856 69.1771 60.5089 68.8764C62.2027 68.5627 63.8495 68.5862 65.4492 68.9469C66.9653 69.2501 68.3507 69.833 69.6054 70.6955C70.8601 71.5581 71.9357 72.6363 72.8323 73.9302C73.7289 75.2241 74.3341 76.7179 74.6478 78.4117C74.9615 80.1055 74.9315 81.717 74.5577 83.2462C74.184 84.7753 73.5658 86.1673 72.7032 87.422C71.8407 88.6767 70.7624 89.7523 69.4686 90.6489C68.0911 91.488 66.5554 92.0644 64.8616 92.3781ZM63.4499 84.756C64.6497 84.5337 65.5658 83.9626 66.1984 83.0425C66.8179 82.0518 67.0165 80.9565 66.7943 79.7568C66.5721 78.557 66.0009 77.6408 65.0808 77.0083C64.1607 76.3757 63.1007 76.1705 61.901 76.3927C60.8423 76.5888 59.9967 77.1469 59.3642 78.067C58.6611 79.0002 58.4206 80.0667 58.6428 81.2665C58.865 82.4663 59.478 83.4112 60.4818 84.1012C61.4019 84.7338 62.3913 84.952 63.4499 84.756ZM121.912 149.151L114.853 111.04C113.442 103.418 109.56 100.195 103.208 101.372C100.032 101.96 96.9961 103.106 94.0999 104.811C91.2743 106.502 88.8054 108.346 86.6934 110.343L81.3765 101.145C83.9172 98.7034 86.9689 96.4593 90.5316 94.4125C94.1649 92.3527 98.0989 90.9306 102.333 90.1463C109.603 88.8 115.487 89.8271 119.985 93.2278C124.484 96.6284 127.387 101.857 128.694 108.915L135.674 146.602L121.912 149.151ZM153.489 143.303L140.96 75.6562C140.097 70.9982 140.148 66.9375 141.113 63.474C142.148 59.9975 144.103 57.1535 146.978 54.9421L126.547 58.7262L124.527 47.8222L159.356 41.3716L161.199 51.3228C157.958 53.529 155.833 56.441 154.824 60.0587C153.886 63.6633 153.828 67.6887 154.652 72.135L167.357 140.734L153.489 143.303ZM208.648 71.77L222.41 69.2211L229.449 107.226C230.835 114.707 230.081 120.686 227.187 125.164C224.28 129.571 219.651 132.363 213.299 133.539C211.253 133.919 209.295 133.989 207.426 133.751C205.57 133.584 203.794 133.256 202.097 132.767C200.459 132.195 198.948 131.526 197.565 130.76C196.169 129.923 194.991 129.083 194.032 128.239L193.903 135.818L181.623 138.092L170.643 78.8088L184.405 76.2599L191.797 116.17C192.681 117.394 193.727 118.514 194.938 119.531C196.135 120.477 197.454 121.291 198.894 121.973C200.321 122.585 201.786 123.007 203.289 123.24C204.863 123.459 206.391 123.432 207.873 123.157C214.507 121.928 217.072 117.256 215.569 109.14L208.648 71.77ZM277.338 56.8581C274.162 57.4463 271.184 58.5089 268.403 60.046C265.608 61.5125 263.206 63.1253 261.196 64.8845L255.954 54.906C258.163 53.037 260.927 51.2111 264.246 49.4283C267.637 47.6325 271.449 46.3424 275.683 45.5582C283.588 44.0942 289.772 44.7737 294.237 47.5966C298.689 50.349 301.431 54.5129 302.463 60.0884C302.934 62.6291 302.887 64.9372 302.322 67.0127C301.828 69.0751 301.097 71.0355 300.127 72.894C299.144 74.682 298.007 76.4255 296.716 78.1246C295.411 79.7531 294.261 81.426 293.266 83.1434C292.257 84.7902 291.444 86.5101 290.827 88.3033C290.281 90.0834 290.204 92.0321 290.596 94.1493C290.726 94.8551 290.892 95.5543 291.094 96.247C291.295 96.9397 291.573 97.6546 291.929 98.3917L280.284 100.548C279.826 100.049 279.343 99.4088 278.833 98.6273C278.323 97.8457 277.957 96.855 277.735 95.6552C277.33 93.4674 277.352 91.4194 277.802 89.5112C278.322 87.59 279.045 85.7772 279.97 84.0729C280.966 82.3555 282.045 80.6957 283.208 79.0933C284.358 77.4204 285.403 75.7671 286.341 74.1333C287.337 72.416 288.079 70.7091 288.568 69.0126C289.114 67.2325 289.204 65.3544 288.838 63.3783C288.642 62.3197 288.241 61.3355 287.635 60.4259C287.099 59.5032 286.371 58.7256 285.451 58.093C284.531 57.4605 283.39 57.0148 282.028 56.7561C280.666 56.4973 279.103 56.5313 277.338 56.8581ZM279.814 112.789C279.408 110.602 279.797 108.559 280.978 106.661C282.146 104.693 284.107 103.454 286.859 102.944C289.612 102.434 291.886 102.889 293.682 104.308C295.464 105.657 296.558 107.425 296.963 109.613C297.369 111.801 296.987 113.879 295.819 115.847C294.637 117.745 292.67 118.949 289.918 119.459C287.165 119.968 284.898 119.549 283.115 118.2C281.319 116.781 280.219 114.977 279.814 112.789ZM330.373 47.0356C327.198 47.6238 324.219 48.6864 321.438 50.2235C318.644 51.69 316.241 53.3028 314.231 55.062L308.989 45.0835C311.198 43.2145 313.962 41.3886 317.281 39.6058C320.672 37.81 324.484 36.5199 328.719 35.7357C336.623 34.2717 342.808 34.9512 347.272 37.7741C351.724 40.5265 354.466 44.6904 355.499 50.2659C355.969 52.8066 355.922 55.1147 355.358 57.1902C354.864 59.2525 354.132 61.213 353.162 63.0715C352.179 64.8595 351.042 66.603 349.751 68.3021C348.447 69.9306 347.296 71.6035 346.301 73.3209C345.292 74.9677 344.479 76.6876 343.862 78.4808C343.316 80.2609 343.239 82.2096 343.631 84.3268C343.761 85.0326 343.927 85.7318 344.129 86.4245C344.33 87.1172 344.608 87.8321 344.964 88.5692L333.319 90.7259C332.862 90.2267 332.378 89.5863 331.868 88.8047C331.358 88.0232 330.992 87.0325 330.77 85.8327C330.365 83.6449 330.387 81.5969 330.837 79.6887C331.357 77.7675 332.08 75.9547 333.005 74.2504C334.001 72.533 335.08 70.8732 336.243 69.2708C337.394 67.5979 338.438 65.9445 339.376 64.3108C340.372 62.5935 341.114 60.8865 341.603 59.1901C342.149 57.41 342.239 55.5319 341.874 53.5558C341.677 52.4972 341.276 51.513 340.67 50.6034C340.134 49.6807 339.406 48.9031 338.486 48.2705C337.566 47.638 336.425 47.1923 335.063 46.9336C333.701 46.6748 332.138 46.7088 330.373 47.0356ZM332.849 102.967C332.444 100.779 332.832 98.7363 334.013 96.8386C335.181 94.8703 337.142 93.6312 339.894 93.1215C342.647 92.6117 344.921 93.0665 346.717 94.4858C348.499 95.8345 349.593 97.6028 349.999 99.7907C350.404 101.979 350.022 104.057 348.854 106.025C347.672 107.923 345.705 109.126 342.953 109.636C340.201 110.146 337.933 109.726 336.15 108.378C334.354 106.958 333.254 105.155 332.849 102.967Z" fill="url(#paint0_linear_38_30)"/>
<path d="M59.7131 112.384L54.9313 116.794L55.0276 116.899L55.1282 116.999L59.7131 112.384ZM44.1786 114.823L48.2901 119.864L48.2901 119.864L44.1786 114.823ZM37.4349 122.751L31.8285 119.451L30.5957 121.546L31.0383 123.936L37.4349 122.751ZM44.9638 163.403L46.1485 169.799L52.5451 168.614L51.3604 162.218L44.9638 163.403ZM31.2016 165.951L24.805 167.136L25.9897 173.533L32.3863 172.348L31.2016 165.951ZM20.2218 106.668L19.0371 100.271L12.6406 101.456L13.8253 107.853L20.2218 106.668ZM32.502 104.394L38.5352 101.961L36.5463 97.0286L31.3173 97.997L32.502 104.394ZM35.3369 111.424L29.3037 113.857L33.4449 124.126L40.3992 115.509L35.3369 111.424ZM43.0452 103.974L47.0507 109.1L47.0924 109.067L47.1335 109.034L43.0452 103.974ZM68.6643 102.185L72.5568 96.9731L72.5568 96.9731L68.6643 102.185ZM84.0274 156.168L85.2121 162.564L91.6087 161.38L90.424 154.983L84.0274 156.168ZM70.2652 158.717L63.8687 159.901L65.0533 166.298L71.4499 165.113L70.2652 158.717ZM69.5837 119.315C68.7891 115.025 67.303 110.754 64.298 107.769L55.1282 116.999C55.3436 117.213 56.1735 118.353 56.7906 121.685L69.5837 119.315ZM64.4949 107.973C60.9938 104.178 56.2395 103.455 51.8589 104.266L54.2283 117.059C54.9959 116.917 55.283 116.997 55.2557 116.99C55.236 116.985 55.1698 116.964 55.0851 116.913C55.0003 116.862 54.9483 116.813 54.9313 116.794L64.4949 107.973ZM51.8589 104.266C47.4938 105.075 43.5411 106.948 40.0672 109.782L48.2901 119.864C50.1432 118.353 52.1005 117.453 54.2283 117.059L51.8589 104.266ZM40.0672 109.782C36.7759 112.466 34.0317 115.708 31.8285 119.451L43.0413 126.051C44.5026 123.568 46.2542 121.525 48.2901 119.864L40.0672 109.782ZM31.0383 123.936L38.5673 164.587L51.3604 162.218L43.8314 121.566L31.0383 123.936ZM43.7792 157.006L30.0169 159.555L32.3863 172.348L46.1485 169.799L43.7792 157.006ZM37.5981 164.767L26.6184 105.483L13.8253 107.853L24.805 167.136L37.5981 164.767ZM21.4065 113.065L33.6867 110.79L31.3173 97.997L19.0371 100.271L21.4065 113.065ZM26.4688 106.827L29.3037 113.857L41.3702 108.991L38.5352 101.961L26.4688 106.827ZM40.3992 115.509C42.1175 113.38 44.315 111.238 47.0507 109.1L39.0397 98.8479C35.6538 101.494 32.7125 104.317 30.2746 107.338L40.3992 115.509ZM47.1335 109.034C49.2445 107.328 51.891 106.105 55.2593 105.481L52.8899 92.6877C47.6479 93.6585 42.9415 95.6944 38.957 98.9136L47.1335 109.034ZM55.2593 105.481C59.239 104.744 62.2203 105.492 64.7717 107.398L72.5568 96.9731C66.8063 92.6785 60.0611 91.3595 52.8899 92.6877L55.2593 105.481ZM64.7717 107.398C67.1899 109.203 69.3274 112.519 70.4352 118.501L83.2283 116.131C81.7481 108.139 78.4406 101.367 72.5568 96.9731L64.7717 107.398ZM70.4352 118.501L77.6309 157.352L90.424 154.983L83.2283 116.131L70.4352 118.501ZM82.8428 149.771L69.0805 152.32L71.4499 165.113L85.2121 162.564L82.8428 149.771ZM76.6617 157.532L69.5837 119.315L56.7906 121.685L63.8687 159.901L76.6617 157.532ZM60.1526 92.3743L58.7218 98.7203L58.7991 98.7378L58.8769 98.7533L60.1526 92.3743ZM55.8709 90.5394L52.1856 95.9002L52.1856 95.9002L55.8709 90.5394ZM52.7731 73.813L47.4123 70.1277L47.4123 70.1277L52.7731 73.813ZM56.1332 70.6723L59.5174 76.228L59.681 76.1284L59.8385 76.0193L56.1332 70.6723ZM65.4492 68.9469L64.0184 75.2929L64.0958 75.3104L64.1735 75.3259L65.4492 68.9469ZM69.6054 70.6955L73.2907 65.3348L73.2907 65.3348L69.6054 70.6955ZM72.8323 73.9302L67.4853 77.6355L72.8323 73.9302ZM74.5577 83.2462L68.2384 81.7016L74.5577 83.2462ZM72.7032 87.422L78.064 91.1073L78.064 91.1073L72.7032 87.422ZM69.4686 90.6489L72.8528 96.2047L73.0164 96.105L73.1738 95.9959L69.4686 90.6489ZM66.1984 83.0425L71.5591 86.7278L71.6392 86.6113L71.7142 86.4915L66.1984 83.0425ZM65.0808 77.0083L68.7662 71.6475L68.7661 71.6475L65.0808 77.0083ZM59.3642 78.067L64.5598 81.9817L64.6449 81.8688L64.7249 81.7524L59.3642 78.067ZM60.4818 84.1012L56.7964 89.462L56.7964 89.462L60.4818 84.1012ZM63.6769 85.9816C62.8117 86.1418 62.079 86.1254 61.4283 85.9953L58.8769 98.7533C61.2583 99.2296 63.665 99.2157 66.0463 98.7747L63.6769 85.9816ZM61.5834 86.0283C60.7283 85.8355 60.078 85.5373 59.5563 85.1787L52.1856 95.9002C54.1733 97.2667 56.3774 98.1917 58.7218 98.7203L61.5834 86.0283ZM59.5563 85.1787C58.9732 84.7778 58.454 84.2677 57.991 83.5995L47.297 91.01C48.6271 92.9295 50.2593 94.5759 52.1856 95.9002L59.5563 85.1787ZM57.991 83.5995C57.6663 83.131 57.3871 82.5136 57.2251 81.6385L44.432 84.0079C44.8973 86.5205 45.8284 88.8908 47.297 91.01L57.991 83.5995ZM57.2251 81.6385C57.063 80.7635 57.1026 80.087 57.2379 79.5334L44.5993 76.4442C43.9871 78.9488 43.9666 81.4953 44.432 84.0079L57.2251 81.6385ZM57.2379 79.5334C57.4309 78.7436 57.733 78.0814 58.1338 77.4983L47.4123 70.1277C46.0881 72.054 45.1538 74.1756 44.5993 76.4442L57.2379 79.5334ZM58.1338 77.4983C58.4463 77.0439 58.8759 76.6188 59.5174 76.228L52.749 65.1165C50.6355 66.404 48.825 68.0727 47.4123 70.1277L58.1338 77.4983ZM59.8385 76.0193C60.3391 75.6724 60.9303 75.4144 61.6936 75.273L59.3242 62.4799C56.841 62.9398 54.5151 63.879 52.428 65.3253L59.8385 76.0193ZM61.6936 75.273C62.5656 75.1115 63.3212 75.1357 64.0184 75.2929L66.88 62.6009C64.3778 62.0367 61.8398 62.014 59.3242 62.4799L61.6936 75.273ZM64.1735 75.3259C64.8394 75.4591 65.4027 75.7007 65.92 76.0563L73.2907 65.3348C71.2986 63.9653 69.0911 63.0411 66.7249 62.5679L64.1735 75.3259ZM65.92 76.0563C66.5031 76.4571 67.0223 76.9672 67.4853 77.6355L78.1793 70.2249C76.8492 68.3054 75.217 66.6591 73.2907 65.3348L65.92 76.0563ZM67.4853 77.6355C67.81 78.104 68.0892 78.7214 68.2512 79.5964L81.0443 77.227C80.579 74.7144 79.6479 72.3442 78.1793 70.2249L67.4853 77.6355ZM68.2512 79.5964C68.4133 80.4715 68.3737 81.1479 68.2384 81.7016L80.877 84.7907C81.4892 82.2861 81.5097 79.7396 81.0443 77.227L68.2512 79.5964ZM68.2384 81.7016C68.0454 82.4913 67.7433 83.1535 67.3425 83.7366L78.064 91.1073C79.3883 89.181 80.3225 87.0593 80.877 84.7907L68.2384 81.7016ZM67.3425 83.7366C66.9416 84.3197 66.4315 84.8389 65.7633 85.3019L73.1738 95.9959C75.0933 94.6658 76.7397 93.0336 78.064 91.1073L67.3425 83.7366ZM66.0843 85.0932C65.4276 85.4932 64.6458 85.8021 63.6769 85.9816L66.0463 98.7747C68.465 98.3267 70.7545 97.4828 72.8528 96.2047L66.0843 85.0932ZM64.6346 91.1525C67.3575 90.6482 69.8537 89.2086 71.5591 86.7278L60.8376 79.3571C61.0104 79.1059 61.2681 78.8445 61.5953 78.6405C61.9121 78.443 62.1681 78.3774 62.2652 78.3594L64.6346 91.1525ZM71.7142 86.4915C73.2377 84.055 73.695 81.2942 73.1908 78.5721L60.3977 80.9414C60.3791 80.8408 60.3568 80.6165 60.4111 80.3171C60.4662 80.0128 60.5769 79.7625 60.6826 79.5935L71.7142 86.4915ZM73.1908 78.5721C72.6865 75.8491 71.2469 73.353 68.7662 71.6475L61.3955 82.369C61.1442 82.1963 60.8828 81.9385 60.6789 81.6114C60.4813 81.2945 60.4157 81.0385 60.3977 80.9414L73.1908 78.5721ZM68.7661 71.6475C66.2853 69.942 63.4392 69.4919 60.7163 69.9962L63.0856 82.7893C62.9886 82.8073 62.726 82.8377 62.3595 82.7667C61.981 82.6935 61.6467 82.5417 61.3955 82.369L68.7661 71.6475ZM60.7163 69.9962C57.8922 70.5192 55.5729 72.0987 54.0034 74.3817L64.7249 81.7524C64.6151 81.9121 64.4008 82.1604 64.0562 82.3878C63.7074 82.618 63.3581 82.7388 63.0856 82.7893L60.7163 69.9962ZM54.1686 74.1523C52.3144 76.6132 51.7086 79.5482 52.2463 82.4512L65.0394 80.0818C65.07 80.2474 65.0974 80.5768 65.0025 80.9976C64.9061 81.4254 64.7247 81.7628 64.5598 81.9817L54.1686 74.1523ZM52.2463 82.4512C52.7821 85.3441 54.3681 87.7926 56.7964 89.462L64.1671 78.7405C64.312 78.8401 64.5311 79.033 64.7268 79.3346C64.9223 79.636 65.0081 79.9129 65.0394 80.0818L52.2463 82.4512ZM56.7964 89.462C59.0794 91.0315 61.8105 91.6755 64.6346 91.1525L62.2652 78.3594C62.5377 78.3089 62.9071 78.2967 63.3152 78.3867C63.7183 78.4756 64.0074 78.6307 64.1671 78.7405L56.7964 89.462ZM121.912 149.151L115.515 150.336L116.7 156.733L123.096 155.548L121.912 149.151ZM94.0999 104.811L90.8005 99.204L90.7796 99.2163L90.7589 99.2288L94.0999 104.811ZM86.6934 110.343L81.0613 113.599L85.1812 120.726L91.163 115.07L86.6934 110.343ZM81.3765 101.145L76.8691 96.4542L73.1931 99.9866L75.7444 104.4L81.3765 101.145ZM90.5316 94.4125L87.3233 88.7534L87.3071 88.7625L87.2911 88.7718L90.5316 94.4125ZM119.985 93.2278L116.062 98.4172L116.062 98.4172L119.985 93.2278ZM135.674 146.602L136.859 152.999L143.255 151.814L142.07 145.418L135.674 146.602ZM128.308 147.967L121.25 109.856L108.457 112.225L115.515 150.336L128.308 147.967ZM121.25 109.856C120.409 105.314 118.635 100.888 115.039 97.9016C111.215 94.7267 106.523 94.1419 102.023 94.9752L104.393 107.768C106.245 107.425 106.67 107.864 106.728 107.912C107.013 108.149 107.886 109.145 108.457 112.225L121.25 109.856ZM102.023 94.9752C98.072 95.7071 94.3234 97.1309 90.8005 99.204L97.3992 110.417C99.6687 109.082 101.992 108.213 104.393 107.768L102.023 94.9752ZM90.7589 99.2288C87.5797 101.132 84.7217 103.254 82.2239 105.616L91.163 115.07C92.8891 113.438 94.9688 111.872 97.4409 110.392L90.7589 99.2288ZM92.3256 107.088L87.0086 97.8893L75.7444 104.4L81.0613 113.599L92.3256 107.088ZM85.884 105.835C87.9857 103.816 90.5949 101.879 93.7722 100.053L87.2911 88.7718C83.3429 91.04 79.8487 93.5909 76.8691 96.4542L85.884 105.835ZM93.74 100.072C96.7249 98.3794 99.972 97.1996 103.518 96.5429L101.149 83.7498C96.2257 84.6615 91.605 86.3259 87.3233 88.7534L93.74 100.072ZM103.518 96.5429C109.58 95.4202 113.439 96.4341 116.062 98.4172L123.908 88.0383C117.534 83.2202 109.625 82.1798 101.149 83.7498L103.518 96.5429ZM116.062 98.4172C118.941 100.593 121.202 104.188 122.297 110.1L135.09 107.73C133.571 99.527 130.027 92.6636 123.908 88.0383L116.062 98.4172ZM122.297 110.1L129.277 147.787L142.07 145.418L135.09 107.73L122.297 110.1ZM134.489 140.206L120.727 142.755L123.096 155.548L136.859 152.999L134.489 140.206ZM153.489 143.303L147.092 144.488L148.277 150.884L154.673 149.7L153.489 143.303ZM141.113 63.474L134.878 61.6178L134.861 61.6732L134.846 61.7289L141.113 63.474ZM146.978 54.9421L150.944 60.0986L145.793 48.5455L146.978 54.9421ZM126.547 58.7262L120.15 59.9109L121.335 66.3074L127.731 65.1227L126.547 58.7262ZM124.527 47.8222L123.342 41.4257L116.946 42.6104L118.13 49.0069L124.527 47.8222ZM159.356 41.3716L165.753 40.1869L164.568 33.7904L158.171 34.9751L159.356 41.3716ZM161.199 51.3228L164.86 56.7005L168.369 54.312L167.596 50.1381L161.199 51.3228ZM154.824 60.0587L148.558 58.3111L148.543 58.3654L148.528 58.4199L154.824 60.0587ZM167.357 140.734L168.542 147.131L174.938 145.946L173.753 139.55L167.357 140.734ZM159.885 142.118L147.357 74.4715L134.563 76.8409L147.092 144.488L159.885 142.118ZM147.357 74.4715C146.619 70.4909 146.751 67.4754 147.38 65.2192L134.846 61.7289C133.545 66.3996 133.575 71.5056 134.563 76.8409L147.357 74.4715ZM147.348 65.3303C147.992 63.1651 149.153 61.4759 150.944 60.0986L143.012 49.7855C139.052 52.8311 136.303 56.8299 134.878 61.6178L147.348 65.3303ZM145.793 48.5455L125.362 52.3296L127.731 65.1227L148.163 61.3386L145.793 48.5455ZM132.943 57.5415L130.924 46.6375L118.13 49.0069L120.15 59.9109L132.943 57.5415ZM125.712 54.2188L160.541 47.7682L158.171 34.9751L123.342 41.4257L125.712 54.2188ZM152.96 42.5563L154.803 52.5075L167.596 50.1381L165.753 40.1869L152.96 42.5563ZM157.539 45.945C153.088 48.9744 149.999 53.1444 148.558 58.3111L161.09 61.8062C161.667 59.7375 162.828 58.0836 164.86 56.7005L157.539 45.945ZM148.528 58.4199C147.304 63.1228 147.295 68.1331 148.255 73.3197L161.048 70.9503C160.362 67.2443 160.467 64.2037 161.119 61.6974L148.528 58.4199ZM148.255 73.3197L160.96 141.919L173.753 139.55L161.048 70.9503L148.255 73.3197ZM166.172 134.338L152.304 136.906L154.673 149.7L168.542 147.131L166.172 134.338ZM208.648 71.77L207.463 65.3734L201.067 66.5581L202.251 72.9547L208.648 71.77ZM222.41 69.2211L228.807 68.0364L227.622 61.6399L221.226 62.8246L222.41 69.2211ZM227.187 125.164L232.618 128.746L232.634 128.72L232.651 128.695L227.187 125.164ZM207.426 133.751L208.247 127.298L208.129 127.283L208.01 127.272L207.426 133.751ZM202.097 132.767L199.953 138.909L200.123 138.968L200.296 139.018L202.097 132.767ZM197.565 130.76L194.221 136.34L194.316 136.397L194.413 136.451L197.565 130.76ZM194.032 128.239L198.33 123.355L187.768 114.06L187.528 128.128L194.032 128.239ZM193.903 135.818L195.088 142.214L200.317 141.246L200.407 135.929L193.903 135.818ZM181.623 138.092L175.226 139.277L176.411 145.674L182.807 144.489L181.623 138.092ZM170.643 78.8088L169.458 72.4123L163.062 73.5969L164.246 79.9935L170.643 78.8088ZM184.405 76.2599L190.802 75.0752L189.617 68.6787L183.221 69.8634L184.405 76.2599ZM191.797 116.17L185.4 117.355L185.667 118.793L186.523 119.979L191.797 116.17ZM194.938 119.531L190.753 124.511L190.828 124.574L190.904 124.634L194.938 119.531ZM198.894 121.973L196.109 127.852L196.219 127.905L196.331 127.953L198.894 121.973ZM203.289 123.24L202.294 129.668L202.342 129.676L202.39 129.682L203.289 123.24ZM209.833 78.1665L223.595 75.6177L221.226 62.8246L207.463 65.3734L209.833 78.1665ZM216.014 70.4058L223.052 108.411L235.846 106.041L228.807 68.0364L216.014 70.4058ZM223.052 108.411C224.265 114.955 223.393 119.05 221.723 121.633L232.651 128.695C236.768 122.323 237.405 114.459 235.846 106.041L223.052 108.411ZM221.756 121.583C220.034 124.194 217.144 126.212 212.115 127.143L214.484 139.936C222.159 138.515 228.527 134.949 232.618 128.746L221.756 121.583ZM212.115 127.143C210.661 127.412 209.383 127.443 208.247 127.298L206.605 140.205C209.207 140.536 211.845 140.425 214.484 139.936L212.115 127.143ZM208.01 127.272C206.543 127.14 205.176 126.884 203.898 126.516L200.296 139.018C202.412 139.628 204.597 140.028 206.842 140.23L208.01 127.272ZM204.242 126.626C202.918 126.163 201.748 125.64 200.717 125.069L194.413 136.451C196.148 137.411 197.999 138.227 199.953 138.909L204.242 126.626ZM200.909 125.18C199.764 124.494 198.926 123.88 198.33 123.355L189.734 133.122C191.057 134.287 192.574 135.353 194.221 136.34L200.909 125.18ZM187.528 128.128L187.399 135.707L200.407 135.929L200.537 128.35L187.528 128.128ZM192.718 129.421L180.438 131.696L182.807 144.489L195.088 142.214L192.718 129.421ZM188.019 136.908L177.04 77.6241L164.246 79.9935L175.226 139.277L188.019 136.908ZM171.828 85.2054L185.59 82.6565L183.221 69.8634L169.458 72.4123L171.828 85.2054ZM178.009 77.4446L185.4 117.355L198.194 114.986L190.802 75.0752L178.009 77.4446ZM186.523 119.979C187.735 121.657 189.152 123.167 190.753 124.511L199.122 114.55C198.302 113.861 197.626 113.131 197.071 112.362L186.523 119.979ZM190.904 124.634C192.504 125.899 194.244 126.969 196.109 127.852L201.679 116.094C200.663 115.613 199.766 115.055 198.971 114.427L190.904 124.634ZM196.331 127.953C198.25 128.775 200.241 129.351 202.294 129.668L204.284 116.811C203.332 116.663 202.393 116.395 201.456 115.994L196.331 127.953ZM202.39 129.682C204.619 129.993 206.851 129.962 209.057 129.554L206.688 116.761C205.93 116.901 205.107 116.925 204.188 116.797L202.39 129.682ZM209.057 129.554C213.739 128.687 218.011 126.35 220.475 121.862C222.783 117.659 222.848 112.721 221.966 107.955L209.173 110.324C209.793 113.675 209.328 115.131 209.07 115.6C208.968 115.785 208.64 116.399 206.688 116.761L209.057 129.554ZM221.966 107.955L215.045 70.5853L202.251 72.9547L209.173 110.324L221.966 107.955ZM268.403 60.046L271.426 65.8062L271.488 65.7736L271.549 65.7397L268.403 60.046ZM261.196 64.8845L255.437 67.9101L259.274 75.2121L265.481 69.7798L261.196 64.8845ZM255.954 54.906L251.752 49.94L247.768 53.3113L250.195 57.9316L255.954 54.906ZM264.246 49.4283L261.201 43.6797L261.185 43.6884L261.168 43.6972L264.246 49.4283ZM294.237 47.5966L290.761 53.095L290.788 53.1125L290.816 53.1298L294.237 47.5966ZM302.322 67.0127L296.045 65.3051L296.019 65.4009L295.996 65.4974L302.322 67.0127ZM300.127 72.894L305.828 76.0277L305.862 75.9659L305.894 75.9033L300.127 72.894ZM296.716 78.1246L301.793 82.1913L301.845 82.1266L301.895 82.0607L296.716 78.1246ZM293.266 83.1434L298.813 86.5419L298.854 86.4748L298.893 86.4067L293.266 83.1434ZM290.827 88.3033L284.675 86.1872L284.64 86.2904L284.608 86.3948L290.827 88.3033ZM291.929 98.3917L293.114 104.788L301.488 103.237L297.788 95.5657L291.929 98.3917ZM280.284 100.548L275.487 104.943L277.923 107.602L281.469 106.945L280.284 100.548ZM278.833 98.6272L273.384 102.181L273.384 102.181L278.833 98.6272ZM277.802 89.5112L271.522 87.8113L271.494 87.9149L271.47 88.0194L277.802 89.5112ZM279.97 84.0729L274.342 80.8096L274.296 80.8887L274.253 80.969L279.97 84.0729ZM283.208 79.0933L288.473 82.9149L288.522 82.8474L288.569 82.7787L283.208 79.0933ZM286.341 74.1333L280.713 70.87L280.707 70.8816L280.7 70.8933L286.341 74.1333ZM288.568 69.0126L282.349 67.1041L282.332 67.1577L282.317 67.2116L288.568 69.0126ZM287.635 60.4259L282.009 63.693L282.11 63.867L282.222 64.0345L287.635 60.4259ZM285.451 58.093L281.765 63.4538L281.765 63.4538L285.451 58.093ZM282.028 56.7561L280.813 63.1471L280.813 63.1471L282.028 56.7561ZM280.978 106.661L286.501 110.099L286.537 110.041L286.572 109.982L280.978 106.661ZM293.682 104.308L289.648 109.412L289.702 109.455L289.757 109.496L293.682 104.308ZM295.819 115.847L301.341 119.286L301.378 119.227L301.413 119.168L295.819 115.847ZM283.115 118.2L279.081 123.304L279.135 123.347L279.19 123.388L283.115 118.2ZM276.154 50.4616C272.302 51.175 268.659 52.4715 265.256 54.3523L271.549 65.7397C273.708 64.5464 276.023 63.7177 278.523 63.2547L276.154 50.4616ZM265.38 54.2857C262.212 55.9483 259.369 57.8389 256.912 59.9892L265.481 69.7798C267.044 68.4117 269.005 67.0766 271.426 65.8062L265.38 54.2857ZM266.955 61.8589L261.713 51.8804L250.195 57.9316L255.437 67.9101L266.955 61.8589ZM260.156 59.872C261.932 58.3692 264.292 56.7879 267.324 55.1595L261.168 43.6972C257.561 45.6343 254.393 47.7047 251.752 49.94L260.156 59.872ZM267.291 55.1769C270.031 53.7255 273.205 52.6332 276.868 51.9547L274.499 39.1616C269.693 40.0516 265.242 41.5394 261.201 43.6797L267.291 55.1769ZM276.868 51.9547C283.978 50.6379 288.252 51.5088 290.761 53.095L297.714 42.0982C291.293 38.0386 283.198 37.5505 274.499 39.1616L276.868 51.9547ZM290.816 53.1298C293.567 54.8305 295.337 57.3331 296.067 61.2731L308.86 58.9037C307.524 51.6927 303.811 45.8675 297.658 42.0635L290.816 53.1298ZM296.067 61.2731C296.395 63.0439 296.307 64.3435 296.045 65.3051L308.6 68.7202C309.467 65.5309 309.473 62.2143 308.86 58.9037L296.067 61.2731ZM295.996 65.4974C295.625 67.0468 295.079 68.5049 294.359 69.8847L305.894 75.9033C307.114 73.5661 308.032 71.1033 308.649 68.528L295.996 65.4974ZM294.426 69.7604C293.604 71.2559 292.643 72.7321 291.536 74.1884L301.895 82.0607C303.371 80.1189 304.684 78.108 305.828 76.0277L294.426 69.7604ZM291.638 74.0578C290.141 75.9272 288.805 77.8676 287.638 79.88L298.893 86.4067C299.718 84.9844 300.682 83.5789 301.793 82.1913L291.638 74.0578ZM287.718 79.7449C286.467 81.7883 285.449 83.9376 284.675 86.1872L296.978 90.4194C297.438 89.0827 298.047 87.792 298.813 86.5419L287.718 79.7449ZM284.608 86.3948C283.709 89.3229 283.646 92.3483 284.199 95.334L296.992 92.9647C296.761 91.7159 296.852 90.8439 297.046 90.2118L284.608 86.3948ZM284.199 95.334C284.369 96.2534 284.585 97.1631 284.847 98.0623L297.341 94.4317C297.199 93.9456 297.083 93.4568 296.992 92.9647L284.199 95.334ZM284.847 98.0623C285.161 99.1446 285.577 100.198 286.069 101.218L297.788 95.5657C297.569 95.1116 297.429 94.7347 297.341 94.4317L284.847 98.0623ZM290.744 91.9952L279.099 94.1519L281.469 106.945L293.114 104.788L290.744 91.9952ZM285.08 96.1537C284.933 95.9935 284.664 95.66 284.282 95.0735L273.384 102.181C274.021 103.158 274.719 104.105 275.487 104.943L285.08 96.1537ZM284.282 95.0735C284.362 95.1957 284.243 95.0731 284.132 94.4706L271.339 96.8399C271.671 98.6369 272.285 100.496 273.384 102.181L284.282 95.0735ZM284.132 94.4706C283.869 93.0502 283.917 91.9221 284.134 91.003L271.47 88.0194C270.787 90.9167 270.791 93.8846 271.339 96.8399L284.132 94.4706ZM284.081 91.2112C284.472 89.7653 285.009 88.425 285.687 87.1768L274.253 80.969C273.08 83.1294 272.171 85.4147 271.522 87.8113L284.081 91.2112ZM285.597 87.3362C286.482 85.8105 287.441 84.337 288.473 82.9149L277.944 75.2718C276.65 77.0544 275.449 78.9006 274.342 80.8096L285.597 87.3362ZM288.569 82.7787C289.811 80.9721 290.95 79.1704 291.982 77.3734L280.7 70.8933C279.855 72.3637 278.906 73.8686 277.848 75.408L288.569 82.7787ZM291.969 77.3967C293.199 75.2753 294.166 73.08 294.819 70.8136L282.317 67.2116C281.992 68.3382 281.475 69.5566 280.713 70.87L291.969 77.3967ZM294.787 70.9211C295.665 68.061 295.776 65.1163 295.235 62.1936L282.442 64.563C282.633 65.5925 282.564 66.4041 282.349 67.1041L294.787 70.9211ZM295.235 62.1936C294.876 60.2551 294.135 58.4483 293.047 56.8173L282.222 64.0345C282.347 64.2228 282.409 64.3842 282.442 64.563L295.235 62.1936ZM293.26 57.1588C292.218 55.3644 290.812 53.8845 289.136 52.7323L281.765 63.4538C281.93 63.5666 281.98 63.642 282.009 63.693L293.26 57.1588ZM289.136 52.7323C287.316 51.4811 285.282 50.7527 283.242 50.3651L280.813 63.1471C281.497 63.2769 281.745 63.4398 281.765 63.4538L289.136 52.7323ZM283.242 50.3651C280.892 49.9187 278.489 50.0291 276.154 50.4616L278.523 63.2547C279.717 63.0336 280.439 63.076 280.813 63.1471L283.242 50.3651ZM286.21 111.605C286.102 111.021 286.172 110.626 286.501 110.099L275.455 103.223C273.421 106.491 272.715 110.182 273.417 113.974L286.21 111.605ZM286.572 109.982C286.625 109.893 286.676 109.833 286.8 109.755C286.952 109.659 287.317 109.475 288.044 109.341L285.675 96.5474C281.525 97.316 277.72 99.4054 275.384 103.341L286.572 109.982ZM288.044 109.341C288.771 109.206 289.177 109.246 289.353 109.282C289.497 109.31 289.567 109.348 289.648 109.412L297.715 99.2046C294.125 96.367 289.824 95.7788 285.675 96.5474L288.044 109.341ZM289.757 109.496C290.252 109.871 290.459 110.214 290.567 110.798L303.36 108.428C302.658 104.636 300.677 101.443 297.607 99.1204L289.757 109.496ZM290.567 110.798C290.676 111.388 290.614 111.871 290.225 112.527L301.413 119.168C303.36 115.887 304.061 112.214 303.36 108.428L290.567 110.798ZM290.296 112.409C290.258 112.471 290.21 112.534 290.062 112.625C289.885 112.733 289.489 112.922 288.733 113.062L291.103 125.855C295.167 125.102 298.96 123.11 301.341 119.286L290.296 112.409ZM288.733 113.062C287.977 113.202 287.54 113.167 287.336 113.13C287.165 113.098 287.098 113.056 287.04 113.012L279.19 123.388C282.783 126.106 287.038 126.608 291.103 125.855L288.733 113.062ZM287.149 113.096C286.55 112.623 286.32 112.195 286.21 111.605L273.417 113.974C274.118 117.76 276.088 120.938 279.081 123.304L287.149 113.096ZM321.438 50.2235L324.461 55.9837L324.523 55.9511L324.584 55.9171L321.438 50.2235ZM314.231 55.062L308.472 58.0876L312.309 65.3896L318.516 59.9573L314.231 55.062ZM308.989 45.0835L304.787 40.1175L300.803 43.4888L303.23 48.1091L308.989 45.0835ZM317.281 39.6058L314.236 33.8572L314.22 33.8659L314.204 33.8747L317.281 39.6058ZM347.272 37.7741L343.796 43.2725L343.823 43.29L343.851 43.3072L347.272 37.7741ZM355.358 57.1902L349.08 55.4826L349.054 55.5784L349.031 55.6749L355.358 57.1902ZM353.162 63.0715L358.863 66.2052L358.897 66.1434L358.929 66.0808L353.162 63.0715ZM349.751 68.3021L354.828 72.3688L354.88 72.3041L354.93 72.2382L349.751 68.3021ZM346.301 73.3209L351.848 76.7194L351.889 76.6523L351.928 76.5842L346.301 73.3209ZM343.862 78.4808L337.71 76.3647L337.675 76.4679L337.643 76.5723L343.862 78.4808ZM344.964 88.5692L346.149 94.9658L354.523 93.4147L350.823 85.7432L344.964 88.5692ZM333.319 90.7259L328.523 95.1207L330.958 97.7791L334.504 97.1225L333.319 90.7259ZM331.868 88.8047L326.419 92.3585L326.419 92.3585L331.868 88.8047ZM330.837 79.6887L324.557 77.9888L324.529 78.0924L324.505 78.1969L330.837 79.6887ZM333.005 74.2504L327.377 70.9871L327.331 71.0662L327.288 71.1465L333.005 74.2504ZM336.243 69.2708L341.508 73.0923L341.557 73.0249L341.604 72.9561L336.243 69.2708ZM339.376 64.3108L333.749 61.0475L333.742 61.0591L333.735 61.0708L339.376 64.3108ZM341.603 59.1901L335.384 57.2816L335.368 57.3352L335.352 57.3891L341.603 59.1901ZM340.67 50.6034L335.044 53.8705L335.145 54.0445L335.257 54.212L340.67 50.6034ZM338.486 48.2705L334.8 53.6313L334.8 53.6313L338.486 48.2705ZM335.063 46.9336L333.849 53.3246L333.849 53.3246L335.063 46.9336ZM334.013 96.8386L339.536 100.277L339.572 100.218L339.607 100.159L334.013 96.8386ZM346.717 94.4858L342.683 99.5895L342.737 99.6322L342.792 99.6737L346.717 94.4858ZM348.854 106.025L354.376 109.463L354.413 109.405L354.448 109.345L348.854 106.025ZM336.15 108.378L332.116 113.481L332.17 113.524L332.225 113.566L336.15 108.378ZM329.189 40.6391C325.337 41.3525 321.694 42.649 318.291 44.5298L324.584 55.9171C326.744 54.7239 329.058 53.8952 331.558 53.4322L329.189 40.6391ZM318.415 44.4632C315.247 46.1258 312.404 48.0163 309.947 50.1667L318.516 59.9573C320.079 58.5892 322.04 57.2541 324.461 55.9837L318.415 44.4632ZM319.99 52.0364L314.748 42.0579L303.23 48.1091L308.472 58.0876L319.99 52.0364ZM313.191 50.0495C314.967 48.5467 317.327 46.9654 320.359 45.337L314.204 33.8747C310.596 35.8118 307.428 37.8822 304.787 40.1175L313.191 50.0495ZM320.327 45.3544C323.067 43.903 326.24 42.8107 329.903 42.1322L327.534 29.3391C322.728 30.2291 318.277 31.7169 314.236 33.8572L320.327 45.3544ZM329.903 42.1322C337.013 40.8154 341.287 41.6863 343.796 43.2725L350.749 32.2757C344.328 28.2161 336.233 27.728 327.534 29.3391L329.903 42.1322ZM343.851 43.3072C346.602 45.008 348.372 47.5106 349.102 51.4506L361.895 49.0812C360.56 41.8701 356.846 36.045 350.693 32.241L343.851 43.3072ZM349.102 51.4506C349.43 53.2214 349.342 54.521 349.08 55.4826L361.635 58.8977C362.502 55.7084 362.508 52.3918 361.895 49.0812L349.102 51.4506ZM349.031 55.6749C348.66 57.2243 348.114 58.6824 347.394 60.0622L358.929 66.0808C360.149 63.7436 361.067 61.2808 361.684 58.7055L349.031 55.6749ZM347.461 59.9379C346.639 61.4334 345.678 62.9096 344.571 64.3659L354.93 72.2382C356.406 70.2964 357.719 68.2855 358.863 66.2052L347.461 59.9379ZM344.673 64.2353C343.176 66.1047 341.84 68.0451 340.673 70.0575L351.928 76.5842C352.753 75.1619 353.717 73.7564 354.828 72.3688L344.673 64.2353ZM340.754 69.9224C339.502 71.9658 338.484 74.1151 337.71 76.3647L350.013 80.5969C350.473 79.2602 351.082 77.9695 351.848 76.7194L340.754 69.9224ZM337.643 76.5723C336.744 79.5004 336.681 82.5258 337.234 85.5115L350.027 83.1422C349.796 81.8934 349.887 81.0214 350.081 80.3893L337.643 76.5723ZM337.234 85.5115C337.404 86.4309 337.621 87.3406 337.882 88.2398L350.376 84.6092C350.234 84.1231 350.118 83.6343 350.027 83.1422L337.234 85.5115ZM337.882 88.2398C338.196 89.3221 338.612 90.3751 339.104 91.3952L350.823 85.7432C350.604 85.2891 350.464 84.9122 350.376 84.6092L337.882 88.2398ZM343.779 82.1727L332.134 84.3294L334.504 97.1225L346.149 94.9658L343.779 82.1727ZM338.115 86.3312C337.969 86.171 337.7 85.8375 337.317 85.251L326.419 92.3585C327.056 93.3351 327.754 94.2824 328.523 95.1207L338.115 86.3312ZM337.317 85.251C337.397 85.3732 337.278 85.2506 337.167 84.648L324.374 87.0174C324.707 88.8144 325.32 90.6732 326.419 92.3585L337.317 85.251ZM337.167 84.648C336.904 83.2277 336.952 82.0996 337.169 81.1805L324.505 78.1969C323.822 81.0942 323.826 84.0621 324.374 87.0174L337.167 84.648ZM337.116 81.3887C337.508 79.9428 338.044 78.6025 338.722 77.3543L327.288 71.1465C326.115 73.3069 325.206 75.5922 324.557 77.9888L337.116 81.3887ZM338.633 77.5137C339.517 75.988 340.476 74.5145 341.508 73.0923L330.979 65.4493C329.685 67.2318 328.484 69.0781 327.377 70.9871L338.633 77.5137ZM341.604 72.9561C342.846 71.1496 343.985 69.3479 345.017 67.5509L333.735 61.0708C332.891 62.5412 331.941 64.0461 330.883 65.5855L341.604 72.9561ZM345.004 67.5742C346.234 65.4528 347.201 63.2574 347.854 60.9911L335.352 57.3891C335.027 58.5156 334.51 59.7341 333.749 61.0475L345.004 67.5742ZM347.822 61.0986C348.7 58.2385 348.811 55.2938 348.27 52.3711L335.477 54.7405C335.668 55.77 335.599 56.5816 335.384 57.2816L347.822 61.0986ZM348.27 52.3711C347.911 50.4326 347.17 48.6258 346.082 46.9948L335.257 54.212C335.383 54.4002 335.444 54.5617 335.477 54.7405L348.27 52.3711ZM346.295 47.3363C345.253 45.5419 343.847 44.062 342.171 42.9098L334.8 53.6313C334.965 53.7441 335.015 53.8194 335.044 53.8705L346.295 47.3363ZM342.171 42.9098C340.351 41.6586 338.317 40.9302 336.277 40.5426L333.849 53.3246C334.532 53.4544 334.78 53.6173 334.8 53.6313L342.171 42.9098ZM336.277 40.5426C333.928 40.0962 331.524 40.2066 329.189 40.6391L331.558 53.4322C332.752 53.2111 333.474 53.2535 333.849 53.3246L336.277 40.5426ZM339.245 101.782C339.137 101.199 339.208 100.804 339.536 100.277L328.491 93.4005C326.456 96.669 325.75 100.36 326.452 104.152L339.245 101.782ZM339.607 100.159C339.66 100.07 339.711 100.01 339.835 99.9321C339.987 99.836 340.352 99.6526 341.079 99.518L338.71 86.7249C334.56 87.4935 330.755 89.5829 328.419 93.518L339.607 100.159ZM341.079 99.518C341.806 99.3834 342.212 99.424 342.389 99.4592C342.532 99.488 342.602 99.5254 342.683 99.5895L350.75 89.3821C347.16 86.5445 342.859 85.9563 338.71 86.7249L341.079 99.518ZM342.792 99.6737C343.287 100.048 343.494 100.392 343.602 100.975L356.395 98.606C355.693 94.8139 353.712 91.6209 350.642 89.2979L342.792 99.6737ZM343.602 100.975C343.711 101.566 343.649 102.048 343.26 102.704L354.448 109.345C356.395 106.065 357.096 102.391 356.395 98.606L343.602 100.975ZM343.331 102.587C343.293 102.649 343.245 102.712 343.097 102.802C342.92 102.91 342.524 103.1 341.768 103.24L344.138 116.033C348.202 115.28 351.995 113.287 354.376 109.463L343.331 102.587ZM341.768 103.24C341.012 103.38 340.575 103.345 340.371 103.307C340.2 103.275 340.133 103.234 340.075 103.19L332.225 113.566C335.818 116.284 340.073 116.785 344.138 116.033L341.768 103.24ZM340.184 103.274C339.585 102.801 339.355 102.373 339.245 101.782L326.452 104.152C327.153 107.937 329.123 111.116 332.116 113.481L340.184 103.274Z" fill="#981B3E" mask="url(#path-1-outside-1_38_30)"/>
</g>
<defs>
<filter id="filter0_dd_38_30" x="0.133379" y="0.0376368" width="378.591" height="186.806" filterUnits="userSpaceOnUse" color-interpolation-filters="sRGB">
<feFlood flood-opacity="0" result="BackgroundImageFix"/>
<feColorMatrix in="SourceAlpha" type="matrix" values="0 0 0 0 0 0 0 0 0 0 0 0 0 0 0 0 0 0 127 0" result="hardAlpha"/>
<feOffset dy="6.50533"/>
<feGaussianBlur stdDeviation="6.50533"/>
<feComposite in2="hardAlpha" operator="out"/>
<feColorMatrix type="matrix" values="0 0 0 0 0 0 0 0 0 0 0 0 0 0 0 0 0 0 0.25 0"/>
<feBlend mode="normal" in2="BackgroundImageFix" result="effect1_dropShadow_38_30"/>
<feColorMatrix in="SourceAlpha" type="matrix" values="0 0 0 0 0 0 0 0 0 0 0 0 0 0 0 0 0 0 127 0" result="hardAlpha"/>
<feOffset dx="6.50533" dy="6.50533"/>
<feComposite in2="hardAlpha" operator="out"/>
<feColorMatrix type="matrix" values="0 0 0 0 0.677507 0 0 0 0 0.325203 0 0 0 0 0 0 0 0 1 0"/>
<feBlend mode="normal" in2="effect1_dropShadow_38_30" result="effect2_dropShadow_38_30"/>
<feBlend mode="normal" in="SourceGraphic" in2="effect2_dropShadow_38_30" result="shape"/>
</filter>
<linearGradient id="paint0_linear_38_30" x1="14.88" y1="117.436" x2="68.406" y2="227.398" gradientUnits="userSpaceOnUse">
<stop stop-color="#C92C8C"/>
<stop offset="0.528867" stop-color="#E42D79"/>
<stop offset="1" stop-color="#FBE320"/>
</linearGradient>
</defs>
</svg>
